{
    "asset" : {
        "generator" : "Khronos glTF Blender I/O v1.5.17",
        "version" : "2.0"
    },
    "scene" : 0,
    "scenes" : [
        {
            "name" : "Scene",
            "nodes" : [
                4
            ]
        }
    ],
    "nodes" : [
        {
            "mesh" : 0,
            "name" : "01",
            "translation" : [
                -1.341827630996704,
                -0.12391805648803711,
                -0.006244958378374577
            ]
        },
        {
            "mesh" : 1,
            "name" : "02",
            "translation" : [
                -0.3637390732765198,
                0.1391892284154892,
                -0.006244951859116554
            ]
        },
        {
            "mesh" : 2,
            "name" : "03",
            "translation" : [
                0.6047545075416565,
                0.0584377683699131,
                -0.006244969554245472
            ]
        },
        {
            "mesh" : 3,
            "name" : "04",
            "translation" : [
                1.5474034547805786,
                -0.0531897246837616,
                -0.006244962103664875
            ]
        },
        {
            "children" : [
                0,
                1,
                2,
                3
            ],
            "name" : "LOGO.001"
        }
    ],
    "materials" : [
        {
            "doubleSided" : true,
            "name" : "WHITE",
            "pbrMetallicRoughness" : {
                "metallicFactor" : 0,
                "roughnessFactor" : 0.5
            }
        }
    ],
    "meshes" : [
        {
            "name" : "Curve.009",
            "primitives" : [
                {
                    "attributes" : {
                        "POSITION" : 0,
                        "NORMAL" : 1,
                        "TEXCOORD_0" : 2
                    },
                    "indices" : 3,
                    "material" : 0
                }
            ]
        },
        {
            "name" : "Curve.019",
            "primitives" : [
                {
                    "attributes" : {
                        "POSITION" : 4,
                        "NORMAL" : 5,
                        "TEXCOORD_0" : 6
                    },
                    "indices" : 7,
                    "material" : 0
                }
            ]
        },
        {
            "name" : "Curve.001",
            "primitives" : [
                {
                    "attributes" : {
                        "POSITION" : 8,
                        "NORMAL" : 9,
                        "TEXCOORD_0" : 10
                    },
                    "indices" : 11,
                    "material" : 0
                }
            ]
        },
        {
            "name" : "Curve.028",
            "primitives" : [
                {
                    "attributes" : {
                        "POSITION" : 12,
                        "NORMAL" : 13,
                        "TEXCOORD_0" : 14
                    },
                    "indices" : 15,
                    "material" : 0
                }
            ]
        }
    ],
    "accessors" : [
        {
            "bufferView" : 0,
            "componentType" : 5126,
            "count" : 1233,
            "max" : [
                0.7540134787559509,
                0.6791889071464539,
                0.20627327263355255
            ],
            "min" : [
                -0.7025339603424072,
                -0.7252629399299622,
                -0.20627333223819733
            ],
            "type" : "VEC3"
        },
        {
            "bufferView" : 1,
            "componentType" : 5126,
            "count" : 1233,
            "type" : "VEC3"
        },
        {
            "bufferView" : 2,
            "componentType" : 5126,
            "count" : 1233,
            "type" : "VEC2"
        },
        {
            "bufferView" : 3,
            "componentType" : 5123,
            "count" : 1956,
            "type" : "SCALAR"
        },
        {
            "bufferView" : 4,
            "componentType" : 5126,
            "count" : 441,
            "max" : [
                0.5865835547447205,
                0.4248211979866028,
                0.20627325773239136
            ],
            "min" : [
                -0.5181367993354797,
                -0.5648496747016907,
                -0.20627327263355255
            ],
            "type" : "VEC3"
        },
        {
            "bufferView" : 5,
            "componentType" : 5126,
            "count" : 441,
            "type" : "VEC3"
        },
        {
            "bufferView" : 6,
            "componentType" : 5126,
            "count" : 441,
            "type" : "VEC2"
        },
        {
            "bufferView" : 7,
            "componentType" : 5123,
            "count" : 648,
            "type" : "SCALAR"
        },
        {
            "bufferView" : 8,
            "componentType" : 5126,
            "count" : 630,
            "max" : [
                0.5830791592597961,
                0.5055727958679199,
                0.20627328753471375
            ],
            "min" : [
                -0.5631852149963379,
                -0.5126767754554749,
                -0.20627328753471375
            ],
            "type" : "VEC3"
        },
        {
            "bufferView" : 9,
            "componentType" : 5126,
            "count" : 630,
            "type" : "VEC3"
        },
        {
            "bufferView" : 10,
            "componentType" : 5126,
            "count" : 630,
            "type" : "VEC2"
        },
        {
            "bufferView" : 11,
            "componentType" : 5123,
            "count" : 945,
            "type" : "SCALAR"
        },
        {
            "bufferView" : 12,
            "componentType" : 5126,
            "count" : 229,
            "max" : [
                0.6668490171432495,
                0.5981478691101074,
                0.20627327263355255
            ],
            "min" : [
                -0.9542981386184692,
                -0.7494091987609863,
                -0.20627327263355255
            ],
            "type" : "VEC3"
        },
        {
            "bufferView" : 13,
            "componentType" : 5126,
            "count" : 229,
            "type" : "VEC3"
        },
        {
            "bufferView" : 14,
            "componentType" : 5126,
            "count" : 229,
            "type" : "VEC2"
        },
        {
            "bufferView" : 15,
            "componentType" : 5123,
            "count" : 303,
            "type" : "SCALAR"
        }
    ],
    "bufferViews" : [
        {
            "buffer" : 0,
            "byteLength" : 14796,
            "byteOffset" : 0
        },
        {
            "buffer" : 0,
            "byteLength" : 14796,
            "byteOffset" : 14796
        },
        {
            "buffer" : 0,
            "byteLength" : 9864,
            "byteOffset" : 29592
        },
        {
            "buffer" : 0,
            "byteLength" : 3912,
            "byteOffset" : 39456
        },
        {
            "buffer" : 0,
            "byteLength" : 5292,
            "byteOffset" : 43368
        },
        {
            "buffer" : 0,
            "byteLength" : 5292,
            "byteOffset" : 48660
        },
        {
            "buffer" : 0,
            "byteLength" : 3528,
            "byteOffset" : 53952
        },
        {
            "buffer" : 0,
            "byteLength" : 1296,
            "byteOffset" : 57480
        },
        {
            "buffer" : 0,
            "byteLength" : 7560,
            "byteOffset" : 58776
        },
        {
            "buffer" : 0,
            "byteLength" : 7560,
            "byteOffset" : 66336
        },
        {
            "buffer" : 0,
            "byteLength" : 5040,
            "byteOffset" : 73896
        },
        {
            "buffer" : 0,
            "byteLength" : 1890,
            "byteOffset" : 78936
        },
        {
            "buffer" : 0,
            "byteLength" : 2748,
            "byteOffset" : 80828
        },
        {
            "buffer" : 0,
            "byteLength" : 2748,
            "byteOffset" : 83576
        },
        {
            "buffer" : 0,
            "byteLength" : 1832,
            "byteOffset" : 86324
        },
        {
            "buffer" : 0,
            "byteLength" : 606,
            "byteOffset" : 88156
        }
    ],
    "buffers" : [
        {
            "byteLength" : 88764,
            "uri" : "data:application/octet-stream;base64,"
        }
    ]
}
